<mxfile host="www.draw.io" modified="2019-10-25T01:59:03.668Z" agent="Mozilla/5.0 (Windows NT 10.0; Win64; x64) AppleWebKit/537.36 (KHTML, like Gecko) Chrome/78.0.3904.70 Safari/537.36" etag="Fgh3v4ISEyXkNF_EmpJl" version="12.1.5" type="github" pages="2">
  <diagram id="B0yvF3y02Yiysx_FKzZP" name="Page-1">
    <mxGraphModel dx="1168" dy="750" grid="1" gridSize="10" guides="1" tooltips="1" connect="1" arrows="1" fold="1" page="1" pageScale="1" pageWidth="1100" pageHeight="850" math="0" shadow="0">
      <root>
        <mxCell id="0"/>
        <mxCell id="1" parent="0"/>
        <mxCell id="l97msg9wnEneZUgjp6Aw-18" style="rounded=1;orthogonalLoop=1;jettySize=auto;html=1;entryX=0.513;entryY=1.038;entryDx=0;entryDy=0;entryPerimeter=0;orthogonal=1;exitX=0.5;exitY=0;exitDx=0;exitDy=0;endArrow=block;endFill=0;endSize=12;dashed=1;" parent="1" source="l97msg9wnEneZUgjp6Aw-2" target="l97msg9wnEneZUgjp6Aw-11" edge="1">
          <mxGeometry relative="1" as="geometry">
            <mxPoint x="515" y="161" as="targetPoint"/>
          </mxGeometry>
        </mxCell>
        <mxCell id="l97msg9wnEneZUgjp6Aw-19" style="orthogonalLoop=1;jettySize=auto;html=1;orthogonal=1;exitX=0.5;exitY=0;exitDx=0;exitDy=0;endArrow=block;endFill=0;endSize=12;rounded=1;dashed=1;entryX=0.5;entryY=1.115;entryDx=0;entryDy=0;entryPerimeter=0;" parent="1" source="l97msg9wnEneZUgjp6Aw-2" target="l97msg9wnEneZUgjp6Aw-17" edge="1">
          <mxGeometry relative="1" as="geometry">
            <mxPoint x="745" y="91" as="targetPoint"/>
          </mxGeometry>
        </mxCell>
        <mxCell id="l97msg9wnEneZUgjp6Aw-2" value="AbstractShape" style="swimlane;fontStyle=1;align=center;verticalAlign=top;childLayout=stackLayout;horizontal=1;startSize=26;horizontalStack=0;resizeParent=1;resizeParentMax=0;resizeLast=0;collapsible=1;marginBottom=0;" parent="1" vertex="1">
          <mxGeometry x="650" y="124" width="160" height="190" as="geometry"/>
        </mxCell>
        <mxCell id="l97msg9wnEneZUgjp6Aw-3" value="- x : int" style="text;strokeColor=none;fillColor=none;align=left;verticalAlign=top;spacingLeft=4;spacingRight=4;overflow=hidden;rotatable=0;points=[[0,0.5],[1,0.5]];portConstraint=eastwest;" parent="l97msg9wnEneZUgjp6Aw-2" vertex="1">
          <mxGeometry y="26" width="160" height="26" as="geometry"/>
        </mxCell>
        <mxCell id="_MP76pxgkuvVRSBDGHYl-47" value="- y : int" style="text;strokeColor=none;fillColor=none;align=left;verticalAlign=top;spacingLeft=4;spacingRight=4;overflow=hidden;rotatable=0;points=[[0,0.5],[1,0.5]];portConstraint=eastwest;" parent="l97msg9wnEneZUgjp6Aw-2" vertex="1">
          <mxGeometry y="52" width="160" height="26" as="geometry"/>
        </mxCell>
        <mxCell id="_MP76pxgkuvVRSBDGHYl-51" value="- length : int" style="text;strokeColor=none;fillColor=none;align=left;verticalAlign=top;spacingLeft=4;spacingRight=4;overflow=hidden;rotatable=0;points=[[0,0.5],[1,0.5]];portConstraint=eastwest;" parent="l97msg9wnEneZUgjp6Aw-2" vertex="1">
          <mxGeometry y="78" width="160" height="26" as="geometry"/>
        </mxCell>
        <mxCell id="_MP76pxgkuvVRSBDGHYl-49" value="- sides : int" style="text;strokeColor=none;fillColor=none;align=left;verticalAlign=top;spacingLeft=4;spacingRight=4;overflow=hidden;rotatable=0;points=[[0,0.5],[1,0.5]];portConstraint=eastwest;" parent="l97msg9wnEneZUgjp6Aw-2" vertex="1">
          <mxGeometry y="104" width="160" height="26" as="geometry"/>
        </mxCell>
        <mxCell id="_MP76pxgkuvVRSBDGHYl-48" value="- color : String" style="text;strokeColor=none;fillColor=none;align=left;verticalAlign=top;spacingLeft=4;spacingRight=4;overflow=hidden;rotatable=0;points=[[0,0.5],[1,0.5]];portConstraint=eastwest;" parent="l97msg9wnEneZUgjp6Aw-2" vertex="1">
          <mxGeometry y="130" width="160" height="26" as="geometry"/>
        </mxCell>
        <mxCell id="l97msg9wnEneZUgjp6Aw-4" value="" style="line;strokeWidth=1;fillColor=none;align=left;verticalAlign=middle;spacingTop=-1;spacingLeft=3;spacingRight=3;rotatable=0;labelPosition=right;points=[];portConstraint=eastwest;" parent="l97msg9wnEneZUgjp6Aw-2" vertex="1">
          <mxGeometry y="156" width="160" height="8" as="geometry"/>
        </mxCell>
        <mxCell id="l97msg9wnEneZUgjp6Aw-20" value="+ getSides() : Integer[]" style="text;strokeColor=none;fillColor=none;align=left;verticalAlign=top;spacingLeft=4;spacingRight=4;overflow=hidden;rotatable=0;points=[[0,0.5],[1,0.5]];portConstraint=eastwest;" parent="l97msg9wnEneZUgjp6Aw-2" vertex="1">
          <mxGeometry y="164" width="160" height="26" as="geometry"/>
        </mxCell>
        <mxCell id="l97msg9wnEneZUgjp6Aw-30" style="rounded=1;orthogonalLoop=1;jettySize=auto;html=1;entryX=0.5;entryY=1;entryDx=0;entryDy=0;orthogonal=1;endArrow=block;endFill=0;endSize=12;" parent="1" source="l97msg9wnEneZUgjp6Aw-23" target="l97msg9wnEneZUgjp6Aw-2" edge="1">
          <mxGeometry relative="1" as="geometry">
            <mxPoint x="578.76" y="406.716" as="targetPoint"/>
          </mxGeometry>
        </mxCell>
        <mxCell id="l97msg9wnEneZUgjp6Aw-23" value="AbstractSymmetricQuad" style="swimlane;fontStyle=1;align=center;verticalAlign=top;childLayout=stackLayout;horizontal=1;startSize=26;horizontalStack=0;resizeParent=1;resizeParentMax=0;resizeLast=0;collapsible=1;marginBottom=0;" parent="1" vertex="1">
          <mxGeometry x="650" y="340" width="160" height="164" as="geometry"/>
        </mxCell>
        <mxCell id="_MP76pxgkuvVRSBDGHYl-16" value="- width : int" style="text;strokeColor=none;fillColor=none;align=left;verticalAlign=top;spacingLeft=4;spacingRight=4;overflow=hidden;rotatable=0;points=[[0,0.5],[1,0.5]];portConstraint=eastwest;" parent="l97msg9wnEneZUgjp6Aw-23" vertex="1">
          <mxGeometry y="26" width="160" height="26" as="geometry"/>
        </mxCell>
        <mxCell id="l97msg9wnEneZUgjp6Aw-24" value="- height : int" style="text;strokeColor=none;fillColor=none;align=left;verticalAlign=top;spacingLeft=4;spacingRight=4;overflow=hidden;rotatable=0;points=[[0,0.5],[1,0.5]];portConstraint=eastwest;" parent="l97msg9wnEneZUgjp6Aw-23" vertex="1">
          <mxGeometry y="52" width="160" height="26" as="geometry"/>
        </mxCell>
        <mxCell id="l97msg9wnEneZUgjp6Aw-25" value="" style="line;strokeWidth=1;fillColor=none;align=left;verticalAlign=middle;spacingTop=-1;spacingLeft=3;spacingRight=3;rotatable=0;labelPosition=right;points=[];portConstraint=eastwest;" parent="l97msg9wnEneZUgjp6Aw-23" vertex="1">
          <mxGeometry y="78" width="160" height="8" as="geometry"/>
        </mxCell>
        <mxCell id="l97msg9wnEneZUgjp6Aw-70" value="+ area(int, int)" style="text;strokeColor=none;fillColor=none;align=left;verticalAlign=top;spacingLeft=4;spacingRight=4;overflow=hidden;rotatable=0;points=[[0,0.5],[1,0.5]];portConstraint=eastwest;" parent="l97msg9wnEneZUgjp6Aw-23" vertex="1">
          <mxGeometry y="86" width="160" height="26" as="geometry"/>
        </mxCell>
        <mxCell id="_MP76pxgkuvVRSBDGHYl-55" value="+ getWidth() : int" style="text;strokeColor=none;fillColor=none;align=left;verticalAlign=top;spacingLeft=4;spacingRight=4;overflow=hidden;rotatable=0;points=[[0,0.5],[1,0.5]];portConstraint=eastwest;" parent="l97msg9wnEneZUgjp6Aw-23" vertex="1">
          <mxGeometry y="112" width="160" height="26" as="geometry"/>
        </mxCell>
        <mxCell id="l97msg9wnEneZUgjp6Aw-31" value="+ getHeight() : int" style="text;strokeColor=none;fillColor=none;align=left;verticalAlign=top;spacingLeft=4;spacingRight=4;overflow=hidden;rotatable=0;points=[[0,0.5],[1,0.5]];portConstraint=eastwest;" parent="l97msg9wnEneZUgjp6Aw-23" vertex="1">
          <mxGeometry y="138" width="160" height="26" as="geometry"/>
        </mxCell>
        <mxCell id="l97msg9wnEneZUgjp6Aw-10" value="«interface»&lt;br&gt;&lt;b&gt;DrawableShape&lt;/b&gt;" style="swimlane;fontStyle=1;align=center;verticalAlign=top;childLayout=stackLayout;horizontal=1;startSize=40;horizontalStack=0;resizeParent=1;resizeParentMax=0;resizeLast=0;collapsible=1;marginBottom=0;html=1;collapsible=1;swimlaneLine=1;" parent="1" vertex="1">
          <mxGeometry x="530" y="22" width="160" height="66" as="geometry"/>
        </mxCell>
        <mxCell id="l97msg9wnEneZUgjp6Aw-11" value="+ draw(int, int)" style="text;strokeColor=none;fillColor=none;align=left;verticalAlign=top;spacingLeft=4;spacingRight=4;overflow=hidden;rotatable=0;points=[[0,0.5],[1,0.5]];portConstraint=eastwest;" parent="l97msg9wnEneZUgjp6Aw-10" vertex="1">
          <mxGeometry y="40" width="160" height="26" as="geometry"/>
        </mxCell>
        <mxCell id="l97msg9wnEneZUgjp6Aw-14" value="«interface»&lt;br&gt;&lt;b&gt;CalcableShape&lt;/b&gt;" style="swimlane;fontStyle=1;align=center;verticalAlign=top;childLayout=stackLayout;horizontal=1;startSize=40;horizontalStack=0;resizeParent=1;resizeParentMax=0;resizeLast=0;collapsible=1;marginBottom=0;html=1;collapsible=1;swimlaneLine=1;" parent="1" vertex="1">
          <mxGeometry x="765" y="9" width="160" height="92" as="geometry"/>
        </mxCell>
        <mxCell id="l97msg9wnEneZUgjp6Aw-16" value="+ perimeter(int...)" style="text;strokeColor=none;fillColor=none;align=left;verticalAlign=top;spacingLeft=4;spacingRight=4;overflow=hidden;rotatable=0;points=[[0,0.5],[1,0.5]];portConstraint=eastwest;" parent="l97msg9wnEneZUgjp6Aw-14" vertex="1">
          <mxGeometry y="40" width="160" height="26" as="geometry"/>
        </mxCell>
        <mxCell id="l97msg9wnEneZUgjp6Aw-17" value="+ area(int)" style="text;strokeColor=none;fillColor=none;align=left;verticalAlign=top;spacingLeft=4;spacingRight=4;overflow=hidden;rotatable=0;points=[[0,0.5],[1,0.5]];portConstraint=eastwest;" parent="l97msg9wnEneZUgjp6Aw-14" vertex="1">
          <mxGeometry y="66" width="160" height="26" as="geometry"/>
        </mxCell>
        <mxCell id="l97msg9wnEneZUgjp6Aw-68" style="rounded=1;orthogonalLoop=1;jettySize=auto;html=1;orthogonal=1;exitX=0.5;exitY=0;exitDx=0;exitDy=0;endArrow=block;endFill=0;endSize=12;entryX=0.263;entryY=1.038;entryDx=0;entryDy=0;entryPerimeter=0;" parent="1" source="l97msg9wnEneZUgjp6Aw-58" target="l97msg9wnEneZUgjp6Aw-31" edge="1">
          <mxGeometry relative="1" as="geometry">
            <mxPoint x="660" y="530" as="targetPoint"/>
          </mxGeometry>
        </mxCell>
        <mxCell id="l97msg9wnEneZUgjp6Aw-58" value="Square" style="swimlane;fontStyle=1;align=center;verticalAlign=top;childLayout=stackLayout;horizontal=1;startSize=26;horizontalStack=0;resizeParent=1;resizeParentMax=0;resizeLast=0;collapsible=1;marginBottom=0;" parent="1" vertex="1">
          <mxGeometry x="390" y="566" width="160" height="112" as="geometry"/>
        </mxCell>
        <mxCell id="l97msg9wnEneZUgjp6Aw-59" value="- sideLength : int" style="text;strokeColor=none;fillColor=none;align=left;verticalAlign=top;spacingLeft=4;spacingRight=4;overflow=hidden;rotatable=0;points=[[0,0.5],[1,0.5]];portConstraint=eastwest;" parent="l97msg9wnEneZUgjp6Aw-58" vertex="1">
          <mxGeometry y="26" width="160" height="26" as="geometry"/>
        </mxCell>
        <mxCell id="l97msg9wnEneZUgjp6Aw-60" value="" style="line;strokeWidth=1;fillColor=none;align=left;verticalAlign=middle;spacingTop=-1;spacingLeft=3;spacingRight=3;rotatable=0;labelPosition=right;points=[];portConstraint=eastwest;" parent="l97msg9wnEneZUgjp6Aw-58" vertex="1">
          <mxGeometry y="52" width="160" height="8" as="geometry"/>
        </mxCell>
        <mxCell id="_MP76pxgkuvVRSBDGHYl-20" value="+ setLength(int)" style="text;strokeColor=none;fillColor=none;align=left;verticalAlign=top;spacingLeft=4;spacingRight=4;overflow=hidden;rotatable=0;points=[[0,0.5],[1,0.5]];portConstraint=eastwest;" parent="l97msg9wnEneZUgjp6Aw-58" vertex="1">
          <mxGeometry y="60" width="160" height="26" as="geometry"/>
        </mxCell>
        <mxCell id="l97msg9wnEneZUgjp6Aw-62" value="+ getLength() : int" style="text;strokeColor=none;fillColor=none;align=left;verticalAlign=top;spacingLeft=4;spacingRight=4;overflow=hidden;rotatable=0;points=[[0,0.5],[1,0.5]];portConstraint=eastwest;" parent="l97msg9wnEneZUgjp6Aw-58" vertex="1">
          <mxGeometry y="86" width="160" height="26" as="geometry"/>
        </mxCell>
        <mxCell id="l97msg9wnEneZUgjp6Aw-69" style="rounded=1;orthogonalLoop=1;jettySize=auto;html=1;entryX=0.594;entryY=1;entryDx=0;entryDy=0;entryPerimeter=0;orthogonal=1;exitX=0.5;exitY=0;exitDx=0;exitDy=0;endArrow=block;endFill=0;endSize=12;" parent="1" source="l97msg9wnEneZUgjp6Aw-63" target="l97msg9wnEneZUgjp6Aw-31" edge="1">
          <mxGeometry relative="1" as="geometry">
            <mxPoint x="730" y="550" as="targetPoint"/>
          </mxGeometry>
        </mxCell>
        <mxCell id="l97msg9wnEneZUgjp6Aw-63" value="Rectangle" style="swimlane;fontStyle=1;align=center;verticalAlign=top;childLayout=stackLayout;horizontal=1;startSize=26;horizontalStack=0;resizeParent=1;resizeParentMax=0;resizeLast=0;collapsible=1;marginBottom=0;" parent="1" vertex="1">
          <mxGeometry x="752.5" y="566" width="160" height="86" as="geometry"/>
        </mxCell>
        <mxCell id="l97msg9wnEneZUgjp6Aw-65" value="" style="line;strokeWidth=1;fillColor=none;align=left;verticalAlign=middle;spacingTop=-1;spacingLeft=3;spacingRight=3;rotatable=0;labelPosition=right;points=[];portConstraint=eastwest;" parent="l97msg9wnEneZUgjp6Aw-63" vertex="1">
          <mxGeometry y="26" width="160" height="8" as="geometry"/>
        </mxCell>
        <mxCell id="_MP76pxgkuvVRSBDGHYl-19" value="+ draw(int, int)" style="text;strokeColor=none;fillColor=none;align=left;verticalAlign=top;spacingLeft=4;spacingRight=4;overflow=hidden;rotatable=0;points=[[0,0.5],[1,0.5]];portConstraint=eastwest;" parent="l97msg9wnEneZUgjp6Aw-63" vertex="1">
          <mxGeometry y="34" width="160" height="26" as="geometry"/>
        </mxCell>
        <mxCell id="_MP76pxgkuvVRSBDGHYl-66" value="+ area(int, int)" style="text;strokeColor=none;fillColor=none;align=left;verticalAlign=top;spacingLeft=4;spacingRight=4;overflow=hidden;rotatable=0;points=[[0,0.5],[1,0.5]];portConstraint=eastwest;" parent="l97msg9wnEneZUgjp6Aw-63" vertex="1">
          <mxGeometry y="60" width="160" height="26" as="geometry"/>
        </mxCell>
        <mxCell id="_MP76pxgkuvVRSBDGHYl-2" value="Triangle" style="swimlane;fontStyle=1;align=center;verticalAlign=top;childLayout=stackLayout;horizontal=1;startSize=26;horizontalStack=0;resizeParent=1;resizeParentMax=0;resizeLast=0;collapsible=1;marginBottom=0;" parent="1" vertex="1">
          <mxGeometry x="210" y="520" width="160" height="320" as="geometry"/>
        </mxCell>
        <mxCell id="_MP76pxgkuvVRSBDGHYl-3" value="- sideALength : int" style="text;strokeColor=none;fillColor=none;align=left;verticalAlign=top;spacingLeft=4;spacingRight=4;overflow=hidden;rotatable=0;points=[[0,0.5],[1,0.5]];portConstraint=eastwest;" parent="_MP76pxgkuvVRSBDGHYl-2" vertex="1">
          <mxGeometry y="26" width="160" height="26" as="geometry"/>
        </mxCell>
        <mxCell id="_MP76pxgkuvVRSBDGHYl-9" value="- sideBLength : int" style="text;strokeColor=none;fillColor=none;align=left;verticalAlign=top;spacingLeft=4;spacingRight=4;overflow=hidden;rotatable=0;points=[[0,0.5],[1,0.5]];portConstraint=eastwest;" parent="_MP76pxgkuvVRSBDGHYl-2" vertex="1">
          <mxGeometry y="52" width="160" height="26" as="geometry"/>
        </mxCell>
        <mxCell id="_MP76pxgkuvVRSBDGHYl-10" value="- sideCLength : int" style="text;strokeColor=none;fillColor=none;align=left;verticalAlign=top;spacingLeft=4;spacingRight=4;overflow=hidden;rotatable=0;points=[[0,0.5],[1,0.5]];portConstraint=eastwest;" parent="_MP76pxgkuvVRSBDGHYl-2" vertex="1">
          <mxGeometry y="78" width="160" height="26" as="geometry"/>
        </mxCell>
        <mxCell id="_MP76pxgkuvVRSBDGHYl-4" value="" style="line;strokeWidth=1;fillColor=none;align=left;verticalAlign=middle;spacingTop=-1;spacingLeft=3;spacingRight=3;rotatable=0;labelPosition=right;points=[];portConstraint=eastwest;" parent="_MP76pxgkuvVRSBDGHYl-2" vertex="1">
          <mxGeometry y="104" width="160" height="8" as="geometry"/>
        </mxCell>
        <mxCell id="_MP76pxgkuvVRSBDGHYl-5" value="+ setA(int)" style="text;strokeColor=none;fillColor=none;align=left;verticalAlign=top;spacingLeft=4;spacingRight=4;overflow=hidden;rotatable=0;points=[[0,0.5],[1,0.5]];portConstraint=eastwest;" parent="_MP76pxgkuvVRSBDGHYl-2" vertex="1">
          <mxGeometry y="112" width="160" height="26" as="geometry"/>
        </mxCell>
        <mxCell id="_MP76pxgkuvVRSBDGHYl-11" value="+ setB(int)" style="text;strokeColor=none;fillColor=none;align=left;verticalAlign=top;spacingLeft=4;spacingRight=4;overflow=hidden;rotatable=0;points=[[0,0.5],[1,0.5]];portConstraint=eastwest;" parent="_MP76pxgkuvVRSBDGHYl-2" vertex="1">
          <mxGeometry y="138" width="160" height="26" as="geometry"/>
        </mxCell>
        <mxCell id="_MP76pxgkuvVRSBDGHYl-12" value="+ setA(int)" style="text;strokeColor=none;fillColor=none;align=left;verticalAlign=top;spacingLeft=4;spacingRight=4;overflow=hidden;rotatable=0;points=[[0,0.5],[1,0.5]];portConstraint=eastwest;" parent="_MP76pxgkuvVRSBDGHYl-2" vertex="1">
          <mxGeometry y="164" width="160" height="26" as="geometry"/>
        </mxCell>
        <mxCell id="_MP76pxgkuvVRSBDGHYl-13" value="+ getA(int) : int" style="text;strokeColor=none;fillColor=none;align=left;verticalAlign=top;spacingLeft=4;spacingRight=4;overflow=hidden;rotatable=0;points=[[0,0.5],[1,0.5]];portConstraint=eastwest;" parent="_MP76pxgkuvVRSBDGHYl-2" vertex="1">
          <mxGeometry y="190" width="160" height="26" as="geometry"/>
        </mxCell>
        <mxCell id="_MP76pxgkuvVRSBDGHYl-17" value="+ getB(int) : int" style="text;strokeColor=none;fillColor=none;align=left;verticalAlign=top;spacingLeft=4;spacingRight=4;overflow=hidden;rotatable=0;points=[[0,0.5],[1,0.5]];portConstraint=eastwest;" parent="_MP76pxgkuvVRSBDGHYl-2" vertex="1">
          <mxGeometry y="216" width="160" height="26" as="geometry"/>
        </mxCell>
        <mxCell id="_MP76pxgkuvVRSBDGHYl-18" value="+ getC(int) : int" style="text;strokeColor=none;fillColor=none;align=left;verticalAlign=top;spacingLeft=4;spacingRight=4;overflow=hidden;rotatable=0;points=[[0,0.5],[1,0.5]];portConstraint=eastwest;" parent="_MP76pxgkuvVRSBDGHYl-2" vertex="1">
          <mxGeometry y="242" width="160" height="26" as="geometry"/>
        </mxCell>
        <mxCell id="_MP76pxgkuvVRSBDGHYl-45" value="+ draw()" style="text;strokeColor=none;fillColor=none;align=left;verticalAlign=top;spacingLeft=4;spacingRight=4;overflow=hidden;rotatable=0;points=[[0,0.5],[1,0.5]];portConstraint=eastwest;" parent="_MP76pxgkuvVRSBDGHYl-2" vertex="1">
          <mxGeometry y="268" width="160" height="26" as="geometry"/>
        </mxCell>
        <mxCell id="_MP76pxgkuvVRSBDGHYl-56" value="+ area(int, int)" style="text;strokeColor=none;fillColor=none;align=left;verticalAlign=top;spacingLeft=4;spacingRight=4;overflow=hidden;rotatable=0;points=[[0,0.5],[1,0.5]];portConstraint=eastwest;" parent="_MP76pxgkuvVRSBDGHYl-2" vertex="1">
          <mxGeometry y="294" width="160" height="26" as="geometry"/>
        </mxCell>
        <mxCell id="_MP76pxgkuvVRSBDGHYl-8" style="rounded=1;orthogonalLoop=1;jettySize=auto;html=1;orthogonal=1;exitX=0.5;exitY=0;exitDx=0;exitDy=0;endArrow=block;endFill=0;endSize=12;entryX=0.075;entryY=1.077;entryDx=0;entryDy=0;entryPerimeter=0;" parent="1" source="_MP76pxgkuvVRSBDGHYl-2" target="l97msg9wnEneZUgjp6Aw-31" edge="1">
          <mxGeometry relative="1" as="geometry">
            <mxPoint x="660" y="520" as="targetPoint"/>
            <mxPoint x="585" y="561" as="sourcePoint"/>
          </mxGeometry>
        </mxCell>
        <mxCell id="_MP76pxgkuvVRSBDGHYl-23" value="Circle" style="swimlane;fontStyle=1;align=center;verticalAlign=top;childLayout=stackLayout;horizontal=1;startSize=26;horizontalStack=0;resizeParent=1;resizeParentMax=0;resizeLast=0;collapsible=1;marginBottom=0;" parent="1" vertex="1">
          <mxGeometry x="575" y="566" width="160" height="164" as="geometry"/>
        </mxCell>
        <mxCell id="_MP76pxgkuvVRSBDGHYl-24" value="- radius : int" style="text;strokeColor=none;fillColor=none;align=left;verticalAlign=top;spacingLeft=4;spacingRight=4;overflow=hidden;rotatable=0;points=[[0,0.5],[1,0.5]];portConstraint=eastwest;" parent="_MP76pxgkuvVRSBDGHYl-23" vertex="1">
          <mxGeometry y="26" width="160" height="26" as="geometry"/>
        </mxCell>
        <mxCell id="_MP76pxgkuvVRSBDGHYl-26" value="" style="line;strokeWidth=1;fillColor=none;align=left;verticalAlign=middle;spacingTop=-1;spacingLeft=3;spacingRight=3;rotatable=0;labelPosition=right;points=[];portConstraint=eastwest;" parent="_MP76pxgkuvVRSBDGHYl-23" vertex="1">
          <mxGeometry y="52" width="160" height="8" as="geometry"/>
        </mxCell>
        <mxCell id="_MP76pxgkuvVRSBDGHYl-27" value="+ setRadius(int)" style="text;strokeColor=none;fillColor=none;align=left;verticalAlign=top;spacingLeft=4;spacingRight=4;overflow=hidden;rotatable=0;points=[[0,0.5],[1,0.5]];portConstraint=eastwest;" parent="_MP76pxgkuvVRSBDGHYl-23" vertex="1">
          <mxGeometry y="60" width="160" height="26" as="geometry"/>
        </mxCell>
        <mxCell id="_MP76pxgkuvVRSBDGHYl-29" value="+ getRadius() : int" style="text;strokeColor=none;fillColor=none;align=left;verticalAlign=top;spacingLeft=4;spacingRight=4;overflow=hidden;rotatable=0;points=[[0,0.5],[1,0.5]];portConstraint=eastwest;" parent="_MP76pxgkuvVRSBDGHYl-23" vertex="1">
          <mxGeometry y="86" width="160" height="26" as="geometry"/>
        </mxCell>
        <mxCell id="_MP76pxgkuvVRSBDGHYl-43" value="+ draw()" style="text;strokeColor=none;fillColor=none;align=left;verticalAlign=top;spacingLeft=4;spacingRight=4;overflow=hidden;rotatable=0;points=[[0,0.5],[1,0.5]];portConstraint=eastwest;" parent="_MP76pxgkuvVRSBDGHYl-23" vertex="1">
          <mxGeometry y="112" width="160" height="26" as="geometry"/>
        </mxCell>
        <mxCell id="_MP76pxgkuvVRSBDGHYl-59" value="+ area(int)" style="text;strokeColor=none;fillColor=none;align=left;verticalAlign=top;spacingLeft=4;spacingRight=4;overflow=hidden;rotatable=0;points=[[0,0.5],[1,0.5]];portConstraint=eastwest;" parent="_MP76pxgkuvVRSBDGHYl-23" vertex="1">
          <mxGeometry y="138" width="160" height="26" as="geometry"/>
        </mxCell>
        <mxCell id="_MP76pxgkuvVRSBDGHYl-31" style="rounded=1;orthogonalLoop=1;jettySize=auto;html=1;entryX=0.5;entryY=1.038;entryDx=0;entryDy=0;entryPerimeter=0;orthogonal=1;exitX=0.5;exitY=0;exitDx=0;exitDy=0;endArrow=block;endFill=0;endSize=12;" parent="1" source="_MP76pxgkuvVRSBDGHYl-23" target="l97msg9wnEneZUgjp6Aw-31" edge="1">
          <mxGeometry relative="1" as="geometry">
            <mxPoint x="823" y="529" as="targetPoint"/>
            <mxPoint x="800" y="588" as="sourcePoint"/>
          </mxGeometry>
        </mxCell>
        <mxCell id="_MP76pxgkuvVRSBDGHYl-32" value="Ellipse" style="swimlane;fontStyle=1;align=center;verticalAlign=top;childLayout=stackLayout;horizontal=1;startSize=26;horizontalStack=0;resizeParent=1;resizeParentMax=0;resizeLast=0;collapsible=1;marginBottom=0;" parent="1" vertex="1">
          <mxGeometry x="930" y="566" width="160" height="86" as="geometry"/>
        </mxCell>
        <mxCell id="_MP76pxgkuvVRSBDGHYl-35" value="" style="line;strokeWidth=1;fillColor=none;align=left;verticalAlign=middle;spacingTop=-1;spacingLeft=3;spacingRight=3;rotatable=0;labelPosition=right;points=[];portConstraint=eastwest;" parent="_MP76pxgkuvVRSBDGHYl-32" vertex="1">
          <mxGeometry y="26" width="160" height="8" as="geometry"/>
        </mxCell>
        <mxCell id="_MP76pxgkuvVRSBDGHYl-39" value="+ draw(int, int)" style="text;strokeColor=none;fillColor=none;align=left;verticalAlign=top;spacingLeft=4;spacingRight=4;overflow=hidden;rotatable=0;points=[[0,0.5],[1,0.5]];portConstraint=eastwest;" parent="_MP76pxgkuvVRSBDGHYl-32" vertex="1">
          <mxGeometry y="34" width="160" height="26" as="geometry"/>
        </mxCell>
        <mxCell id="_MP76pxgkuvVRSBDGHYl-61" value="+ area(int, int)" style="text;strokeColor=none;fillColor=none;align=left;verticalAlign=top;spacingLeft=4;spacingRight=4;overflow=hidden;rotatable=0;points=[[0,0.5],[1,0.5]];portConstraint=eastwest;" parent="_MP76pxgkuvVRSBDGHYl-32" vertex="1">
          <mxGeometry y="60" width="160" height="26" as="geometry"/>
        </mxCell>
        <mxCell id="_MP76pxgkuvVRSBDGHYl-40" style="rounded=1;orthogonalLoop=1;jettySize=auto;html=1;entryX=0.813;entryY=1;entryDx=0;entryDy=0;entryPerimeter=0;orthogonal=1;exitX=0.5;exitY=0;exitDx=0;exitDy=0;endArrow=block;endFill=0;endSize=12;" parent="1" source="_MP76pxgkuvVRSBDGHYl-32" target="l97msg9wnEneZUgjp6Aw-31" edge="1">
          <mxGeometry relative="1" as="geometry">
            <mxPoint x="838" y="528" as="targetPoint"/>
            <mxPoint x="850" y="612" as="sourcePoint"/>
          </mxGeometry>
        </mxCell>
        <mxCell id="_MP76pxgkuvVRSBDGHYl-41" value="The only thing that changes&lt;br&gt;for rectangle and ellipse&lt;br&gt;is the formula to draw them" style="text;html=1;resizable=0;points=[];autosize=1;align=left;verticalAlign=top;spacingTop=-4;" parent="1" vertex="1">
          <mxGeometry x="832.5" y="670" width="160" height="40" as="geometry"/>
        </mxCell>
        <mxCell id="_MP76pxgkuvVRSBDGHYl-50" value="Based off the idea that&lt;br&gt;draw() creates a # of equal lines&lt;br&gt;that form an enclosed shape&lt;br&gt;based on the # of sides given&lt;br&gt;and the length given" style="text;html=1;resizable=0;points=[];autosize=1;align=left;verticalAlign=top;spacingTop=-4;" parent="1" vertex="1">
          <mxGeometry x="310" y="30" width="190" height="70" as="geometry"/>
        </mxCell>
        <mxCell id="_MP76pxgkuvVRSBDGHYl-52" value="With this design, the children classes add variables that&lt;br style=&quot;font-size: 16px;&quot;&gt;are needed for the specific shape, add get/set methods for&lt;br style=&quot;font-size: 16px;&quot;&gt;the new variables, and makes changes to the draw() method" style="text;html=1;resizable=0;points=[];autosize=1;align=left;verticalAlign=top;spacingTop=-4;fontSize=16;fontStyle=1" parent="1" vertex="1">
          <mxGeometry x="130" y="260" width="340" height="40" as="geometry"/>
        </mxCell>
        <mxCell id="_MP76pxgkuvVRSBDGHYl-54" value="... - # of args dependent&amp;nbsp;&lt;br&gt;&amp;nbsp; &amp;nbsp; &amp;nbsp; on # of sides" style="text;html=1;resizable=0;points=[];autosize=1;align=left;verticalAlign=top;spacingTop=-4;fontSize=12;" parent="1" vertex="1">
          <mxGeometry x="930" y="40" width="150" height="30" as="geometry"/>
        </mxCell>
        <mxCell id="_MP76pxgkuvVRSBDGHYl-62" value="Changes to the method area() because&lt;br&gt;the formula is different for each shape &lt;br&gt;except square" style="text;html=1;resizable=0;points=[];autosize=1;align=left;verticalAlign=top;spacingTop=-4;fontSize=12;" parent="1" vertex="1">
          <mxGeometry x="550" y="770" width="220" height="40" as="geometry"/>
        </mxCell>
        <mxCell id="_MP76pxgkuvVRSBDGHYl-63" value="Default area() can be&lt;br&gt;the formula for a square" style="text;html=1;resizable=0;points=[];autosize=1;align=left;verticalAlign=top;spacingTop=-4;fontSize=12;" parent="1" vertex="1">
          <mxGeometry x="940" y="85" width="140" height="30" as="geometry"/>
        </mxCell>
      </root>
    </mxGraphModel>
  </diagram>
  <diagram id="p4J0u6xB6nAqVOjPrcWv" name="Page-2">
    <mxGraphModel dx="1168" dy="750" grid="1" gridSize="10" guides="1" tooltips="1" connect="1" arrows="1" fold="1" page="1" pageScale="1" pageWidth="850" pageHeight="1100" math="0" shadow="0">
      <root>
        <mxCell id="or2MXt8nqQiOjiBctAFv-0"/>
        <mxCell id="or2MXt8nqQiOjiBctAFv-1" parent="or2MXt8nqQiOjiBctAFv-0"/>
        <mxCell id="or2MXt8nqQiOjiBctAFv-2" value="Singleton" style="swimlane;fontStyle=1;align=center;verticalAlign=top;childLayout=stackLayout;horizontal=1;startSize=26;horizontalStack=0;resizeParent=1;resizeParentMax=0;resizeLast=0;collapsible=1;marginBottom=0;" vertex="1" parent="or2MXt8nqQiOjiBctAFv-1">
          <mxGeometry x="20" y="20" width="160" height="112" as="geometry"/>
        </mxCell>
        <mxCell id="or2MXt8nqQiOjiBctAFv-3" value="+ field: type" style="text;strokeColor=none;fillColor=none;align=left;verticalAlign=top;spacingLeft=4;spacingRight=4;overflow=hidden;rotatable=0;points=[[0,0.5],[1,0.5]];portConstraint=eastwest;" vertex="1" parent="or2MXt8nqQiOjiBctAFv-2">
          <mxGeometry y="26" width="160" height="26" as="geometry"/>
        </mxCell>
        <mxCell id="or2MXt8nqQiOjiBctAFv-4" value="" style="line;strokeWidth=1;fillColor=none;align=left;verticalAlign=middle;spacingTop=-1;spacingLeft=3;spacingRight=3;rotatable=0;labelPosition=right;points=[];portConstraint=eastwest;" vertex="1" parent="or2MXt8nqQiOjiBctAFv-2">
          <mxGeometry y="52" width="160" height="8" as="geometry"/>
        </mxCell>
        <mxCell id="or2MXt8nqQiOjiBctAFv-5" value="+ getInstance() : Singleton" style="text;strokeColor=none;fillColor=none;align=left;verticalAlign=top;spacingLeft=4;spacingRight=4;overflow=hidden;rotatable=0;points=[[0,0.5],[1,0.5]];portConstraint=eastwest;" vertex="1" parent="or2MXt8nqQiOjiBctAFv-2">
          <mxGeometry y="60" width="160" height="26" as="geometry"/>
        </mxCell>
        <mxCell id="or2MXt8nqQiOjiBctAFv-6" value="- Singleton()" style="text;strokeColor=none;fillColor=none;align=left;verticalAlign=top;spacingLeft=4;spacingRight=4;overflow=hidden;rotatable=0;points=[[0,0.5],[1,0.5]];portConstraint=eastwest;" vertex="1" parent="or2MXt8nqQiOjiBctAFv-2">
          <mxGeometry y="86" width="160" height="26" as="geometry"/>
        </mxCell>
        <mxCell id="or2MXt8nqQiOjiBctAFv-12" value="Entertainment" style="swimlane;fontStyle=1;align=center;verticalAlign=top;childLayout=stackLayout;horizontal=1;startSize=26;horizontalStack=0;resizeParent=1;resizeParentMax=0;resizeLast=0;collapsible=1;marginBottom=0;" vertex="1" parent="or2MXt8nqQiOjiBctAFv-1">
          <mxGeometry x="200" y="20" width="270" height="354" as="geometry"/>
        </mxCell>
        <mxCell id="or2MXt8nqQiOjiBctAFv-13" value="- speakers : Speakers" style="text;strokeColor=none;fillColor=none;align=left;verticalAlign=top;spacingLeft=4;spacingRight=4;overflow=hidden;rotatable=0;points=[[0,0.5],[1,0.5]];portConstraint=eastwest;" vertex="1" parent="or2MXt8nqQiOjiBctAFv-12">
          <mxGeometry y="26" width="270" height="26" as="geometry"/>
        </mxCell>
        <mxCell id="or2MXt8nqQiOjiBctAFv-16" value="- stereo : Stereo" style="text;strokeColor=none;fillColor=none;align=left;verticalAlign=top;spacingLeft=4;spacingRight=4;overflow=hidden;rotatable=0;points=[[0,0.5],[1,0.5]];portConstraint=eastwest;" vertex="1" parent="or2MXt8nqQiOjiBctAFv-12">
          <mxGeometry y="52" width="270" height="26" as="geometry"/>
        </mxCell>
        <mxCell id="or2MXt8nqQiOjiBctAFv-17" value="-  connections : Connections" style="text;strokeColor=none;fillColor=none;align=left;verticalAlign=top;spacingLeft=4;spacingRight=4;overflow=hidden;rotatable=0;points=[[0,0.5],[1,0.5]];portConstraint=eastwest;" vertex="1" parent="or2MXt8nqQiOjiBctAFv-12">
          <mxGeometry y="78" width="270" height="26" as="geometry"/>
        </mxCell>
        <mxCell id="or2MXt8nqQiOjiBctAFv-7" value="EntertainmentBuilder" style="swimlane;fontStyle=1;align=center;verticalAlign=top;childLayout=stackLayout;horizontal=1;startSize=26;horizontalStack=0;resizeParent=1;resizeParentMax=0;resizeLast=0;collapsible=1;marginBottom=0;" vertex="1" parent="or2MXt8nqQiOjiBctAFv-12">
          <mxGeometry y="104" width="270" height="216" as="geometry"/>
        </mxCell>
        <mxCell id="or2MXt8nqQiOjiBctAFv-18" value="- speakers : Speakers" style="text;strokeColor=none;fillColor=none;align=left;verticalAlign=top;spacingLeft=4;spacingRight=4;overflow=hidden;rotatable=0;points=[[0,0.5],[1,0.5]];portConstraint=eastwest;" vertex="1" parent="or2MXt8nqQiOjiBctAFv-7">
          <mxGeometry y="26" width="270" height="26" as="geometry"/>
        </mxCell>
        <mxCell id="or2MXt8nqQiOjiBctAFv-19" value="- stereo : Stereo" style="text;strokeColor=none;fillColor=none;align=left;verticalAlign=top;spacingLeft=4;spacingRight=4;overflow=hidden;rotatable=0;points=[[0,0.5],[1,0.5]];portConstraint=eastwest;" vertex="1" parent="or2MXt8nqQiOjiBctAFv-7">
          <mxGeometry y="52" width="270" height="26" as="geometry"/>
        </mxCell>
        <mxCell id="or2MXt8nqQiOjiBctAFv-20" value="-  connections : Connections" style="text;strokeColor=none;fillColor=none;align=left;verticalAlign=top;spacingLeft=4;spacingRight=4;overflow=hidden;rotatable=0;points=[[0,0.5],[1,0.5]];portConstraint=eastwest;" vertex="1" parent="or2MXt8nqQiOjiBctAFv-7">
          <mxGeometry y="78" width="270" height="26" as="geometry"/>
        </mxCell>
        <mxCell id="or2MXt8nqQiOjiBctAFv-9" value="" style="line;strokeWidth=1;fillColor=none;align=left;verticalAlign=middle;spacingTop=-1;spacingLeft=3;spacingRight=3;rotatable=0;labelPosition=right;points=[];portConstraint=eastwest;" vertex="1" parent="or2MXt8nqQiOjiBctAFv-7">
          <mxGeometry y="104" width="270" height="8" as="geometry"/>
        </mxCell>
        <mxCell id="or2MXt8nqQiOjiBctAFv-21" value="+ setSpeakers() : EntertainmentBuilder" style="text;strokeColor=none;fillColor=none;align=left;verticalAlign=top;spacingLeft=4;spacingRight=4;overflow=hidden;rotatable=0;points=[[0,0.5],[1,0.5]];portConstraint=eastwest;" vertex="1" parent="or2MXt8nqQiOjiBctAFv-7">
          <mxGeometry y="112" width="270" height="26" as="geometry"/>
        </mxCell>
        <mxCell id="or2MXt8nqQiOjiBctAFv-22" value="+ setStereo() : EntertainmentBuilder" style="text;strokeColor=none;fillColor=none;align=left;verticalAlign=top;spacingLeft=4;spacingRight=4;overflow=hidden;rotatable=0;points=[[0,0.5],[1,0.5]];portConstraint=eastwest;" vertex="1" parent="or2MXt8nqQiOjiBctAFv-7">
          <mxGeometry y="138" width="270" height="26" as="geometry"/>
        </mxCell>
        <mxCell id="or2MXt8nqQiOjiBctAFv-11" value="+ setConnections() : EntertainmentBuilder" style="text;strokeColor=none;fillColor=none;align=left;verticalAlign=top;spacingLeft=4;spacingRight=4;overflow=hidden;rotatable=0;points=[[0,0.5],[1,0.5]];portConstraint=eastwest;" vertex="1" parent="or2MXt8nqQiOjiBctAFv-7">
          <mxGeometry y="164" width="270" height="26" as="geometry"/>
        </mxCell>
        <mxCell id="or2MXt8nqQiOjiBctAFv-23" value="+ build() : Entertainment" style="text;strokeColor=none;fillColor=none;align=left;verticalAlign=top;spacingLeft=4;spacingRight=4;overflow=hidden;rotatable=0;points=[[0,0.5],[1,0.5]];portConstraint=eastwest;" vertex="1" parent="or2MXt8nqQiOjiBctAFv-7">
          <mxGeometry y="190" width="270" height="26" as="geometry"/>
        </mxCell>
        <mxCell id="or2MXt8nqQiOjiBctAFv-14" value="" style="line;strokeWidth=1;fillColor=none;align=left;verticalAlign=middle;spacingTop=-1;spacingLeft=3;spacingRight=3;rotatable=0;labelPosition=right;points=[];portConstraint=eastwest;" vertex="1" parent="or2MXt8nqQiOjiBctAFv-12">
          <mxGeometry y="320" width="270" height="8" as="geometry"/>
        </mxCell>
        <mxCell id="or2MXt8nqQiOjiBctAFv-15" value="# Entertainment(Speakers, Stereo, Connections)" style="text;strokeColor=none;fillColor=none;align=left;verticalAlign=top;spacingLeft=4;spacingRight=4;overflow=hidden;rotatable=0;points=[[0,0.5],[1,0.5]];portConstraint=eastwest;" vertex="1" parent="or2MXt8nqQiOjiBctAFv-12">
          <mxGeometry y="328" width="270" height="26" as="geometry"/>
        </mxCell>
      </root>
    </mxGraphModel>
  </diagram>
</mxfile>
